<?xml version="1.0" encoding="UTF-8" standalone="no" ?>
<!DOCTYPE svg PUBLIC "-//W3C//DTD SVG 1.1//EN" "http://www.w3.org/Graphics/SVG/1.1/DTD/svg11.dtd">
<svg xmlns="http://www.w3.org/2000/svg" xmlns:xlink="http://www.w3.org/1999/xlink" version="1.1" width="1920" height="1080" viewBox="0 0 1920 1080" xml:space="preserve">
<desc>Created with Fabric.js 5.2.4</desc>
<defs>
</defs>
<g transform="matrix(1 0 0 1 527.85 431.28)" id="id_240"  >
<filter id="SVGID_240" y="-27%" height="154%" x="-26%" width="152%" >
	<feGaussianBlur in="SourceAlpha" stdDeviation="15"></feGaussianBlur>
	<feOffset dx="0" dy="0" result="oBlur" ></feOffset>
	<feFlood flood-color="rgb(0,0,0)" flood-opacity="1"/>
	<feComposite in2="oBlur" operator="in" />
	<feMerge>
		<feMergeNode></feMergeNode>
		<feMergeNode in="SourceGraphic"></feMergeNode>
	</feMerge>
</filter>
<path style="stroke: rgb(255,255,0); stroke-width: 2; stroke-dasharray: none; stroke-linecap: butt; stroke-dashoffset: 0; stroke-linejoin: miter; stroke-miterlimit: 4; fill: rgb(255,0,0); fill-rule: nonzero; opacity: 1;filter: url(#SVGID_240);"  transform=" translate(-364.71, -326.27)" class="class_240" d="M 238.1398755663391 300.01875676753707 Q 323.4577050015236 256.8910604822036 408.7755344367081 213.76336419687019 Q 510.9694180458851 296.2685223079429 613.1633016550621 378.7736804190156 Q 536.2834993068739 420.96381808945046 459.40369695868566 463.1539557598854 Q 452.84078700213297 380.64879764881266 446.27787704558034 298.14363953774 Q 411.58821013237343 353.45959781675464 376.8985432191666 408.7755560957693 Q 325.3328221319672 390.96194241269677 273.7671010447678 373.14832872962427 Q 280.33001100132043 420.96381808945046 286.89292095787306 468.7793074492767 Q 303.7689751318656 500.6563003558275 320.64502930585815 532.5332932623784 Q 255.01592974033161 515.6572381942044 189.3868301748051 498.78118312603044 Q 152.82204613115462 416.2760250149577 116.25726208750413 333.770866903885 Q 156.57228039204185 286.89293615895735 196.88729869657956 240.01500541402967 Q 272.829542479546 180.01125406052225 348.77178626251236 120.00750270701484 Q 409.71309300192985 121.88261993681195 470.65439974134733 123.75773716660905 Q 354.39713765384323 211.88824696707306 238.1398755663391 300.01875676753707 z" stroke-linecap="round" />
</g>
</svg>